<svg width="56" height="64" viewBox="0 0 56 64" fill="none" xmlns="http://www.w3.org/2000/svg">
<path fill-rule="evenodd" clip-rule="evenodd" d="M28.0567 63.134C27.197 63.134 26.3946 62.9048 25.6496 62.5036L18.0271 57.976C16.8808 57.3455 17.454 57.1163 17.7978 57.0017C19.3452 56.4858 19.6318 56.3712 21.2365 55.4542C21.4085 55.3396 21.6377 55.3969 21.8097 55.5115L27.6555 59.0076C27.8847 59.1222 28.1713 59.1222 28.3432 59.0076L51.2107 45.7685C51.4399 45.6539 51.5546 45.4246 51.5546 45.1381V18.7173C51.5546 18.4307 51.4399 18.2015 51.2107 18.0869L28.3432 4.90511C28.114 4.79049 27.8274 4.79049 27.6555 4.90511L4.78802 18.0869C4.55877 18.2015 4.44415 18.488 4.44415 18.7173V45.1381C4.44415 45.3673 4.55877 45.6539 4.78802 45.7685L11.035 49.3792C14.4164 51.0985 16.537 49.0926 16.537 47.0867V21.0098C16.537 20.6659 16.8235 20.322 17.2247 20.322H20.1476C20.4915 20.322 20.8354 20.6086 20.8354 21.0098V47.0867C20.8354 51.6143 18.3709 54.2507 14.0726 54.2507C12.7544 54.2507 11.7228 54.2507 8.79985 52.8179L2.7821 49.3792C1.29199 48.5195 0.375 46.9148 0.375 45.1954V18.7746C0.375 17.0552 1.29199 15.4505 2.7821 14.5908L25.6496 1.35177C27.0824 0.549408 29.031 0.549408 30.4638 1.35177L53.3312 14.5908C54.8213 15.4505 55.7383 17.0552 55.7383 18.7746V45.1954C55.7383 46.9148 54.8213 48.5195 53.3312 49.3792L30.4638 62.6182C29.7187 62.9621 28.859 63.134 28.0567 63.134ZM35.106 44.9662C25.0764 44.9662 23.0132 40.3812 23.0132 36.484C23.0132 36.1401 23.2998 35.7962 23.701 35.7962H26.6812C27.025 35.7962 27.3116 36.0255 27.3116 36.3694C27.7701 39.4069 29.0883 40.897 35.1633 40.897C39.9775 40.897 42.0408 39.8081 42.0408 37.229C42.0408 35.7389 41.4677 34.65 33.9598 33.9049C27.7128 33.2745 23.8156 31.899 23.8156 26.9129C23.8156 22.2706 27.7128 19.5197 34.2463 19.5197C41.5823 19.5197 45.1929 22.0414 45.6514 27.5433C45.6514 27.7153 45.5941 27.8872 45.4795 28.0591C45.3649 28.1738 45.1929 28.2884 45.021 28.2884H42.0408C41.7542 28.2884 41.4677 28.0591 41.4103 27.7726C40.7226 24.6204 38.9459 23.5888 34.2463 23.5888C28.9737 23.5888 28.3432 25.4228 28.3432 26.7983C28.3432 28.4603 29.0883 28.9761 36.195 29.8931C43.2443 30.8101 46.5684 32.1283 46.5684 37.0571C46.5111 42.1006 42.3846 44.9662 35.106 44.9662Z" fill="#7B4AE2" fill-opacity="0.5"/>
</svg>
