<svg xmlns="http://www.w3.org/2000/svg" version="1.1" xmlns:xlink="http://www.w3.org/1999/xlink"  width="512" height="512" x="0" y="0" viewBox="0 0 464.013 464.013" style="enable-background:new 0 0 512 512" xml:space="preserve" class=""><g><path d="M359.848 328.013h-72l-40 40-40-40h-72c-26.51 0-48 21.49-48 48v88h320v-88c0-26.509-21.49-48-48-48z" style="" fill="#7b4ae2" data-original="#1c9699" class=""></path><path d="M287.848 328.013v-57.68a86.905 86.905 0 0 0 38.8-39.312c.472-.944.936-1.888 1.376-2.848a641.019 641.019 0 0 0 1.6-3.68 90.985 90.985 0 0 0 1.432-3.912c.344-1.008.72-2 1.032-3.016a84.484 84.484 0 0 0 1.792-6.96c.184-.848.32-1.72.48-2.576.336-1.824.624-3.664.848-5.528.096-.8.2-1.648.272-2.48.24-2.64.408-5.304.408-8v-48.008h-7.016c-14.682-.002-27.48-9.996-31.04-24.24l-17.984-63.76-16.424 57.704c-4.45 17.795-20.433 30.283-38.776 30.296h-64.8v48c.007 33.053 18.551 63.31 48 78.32v57.68h-5.768a63.835 63.835 0 0 1 21.224 40h88.544c22.091 0 40-17.909 40-40h-64z" style="" fill="#f2dbc0" data-original="#f2dbc0" class=""></path><path d="M207.848 198.013c-7.732 0-14-6.268-14-14s6.268-14 14-14 14 6.268 14 14c-.009 7.729-6.271 13.991-14 14zm0-16a2 2 0 0 0-2 2c0 2.2 4 2.2 4 0a2 2 0 0 0-2-2zM287.848 198.013c-7.732 0-14-6.268-14-14s6.268-14 14-14 14 6.268 14 14c-.009 7.729-6.271 13.991-14 14zm0-16a2 2 0 0 0-2 2c0 2.2 4 2.2 4 0a2 2 0 0 0-2-2z" style="" fill="#30271f" data-original="#30271f" class=""></path><path d="M247.848 254.013c-16.561-.018-29.982-13.439-30-30h12c0 9.941 8.059 18 18 18s18-8.059 18-18h12c-.017 16.561-13.438 29.983-30 30z" style="" fill="#f0caa8" data-original="#f0caa8" class=""></path><path d="M287.848 278.325v-8a86.08 86.08 0 0 1-8.728 3.856c-.432.168-.864.32-1.304.48a80.596 80.596 0 0 1-7.808 2.4c-.72.192-1.432.384-2.152.56a86.84 86.84 0 0 1-7.536 1.384c-.8.12-1.6.28-2.4.376a82.902 82.902 0 0 1-20.048 0c-.8-.096-1.6-.256-2.4-.376-2.544-.36-5.064-.8-7.536-1.384-.72-.176-1.432-.368-2.152-.56a88.403 88.403 0 0 1-7.808-2.4c-.44-.16-.872-.312-1.304-.48a86.08 86.08 0 0 1-8.824-3.848v8a89.85 89.85 0 0 0 8.728 3.856c.432.168.864.32 1.304.48a82.438 82.438 0 0 0 7.808 2.4c.72.192 1.432.392 2.152.56 2.472.576 4.992 1.016 7.536 1.384.8.12 1.6.28 2.4.376 6.658.811 13.39.811 20.048 0 .8-.096 1.6-.256 2.4-.376 2.544-.368 5.064-.8 7.536-1.384.72-.168 1.432-.368 2.152-.56a92.96 92.96 0 0 0 7.808-2.4c.44-.16.872-.312 1.304-.48a89.708 89.708 0 0 0 8.824-3.856v-.008z" style="" fill="#dbc6ae" data-original="#dbc6ae" class=""></path><path d="M262.152.813c-70.25-7.9-133.602 42.645-141.502 112.894-.534 4.75-.802 9.526-.802 14.306v3.616a140.413 140.413 0 0 0 10.224 52.552c1.067 2.667 2.211 5.277 3.432 7.832s2.555 5.157 4 7.808l17.896 32.192h-43.552c-13.255 0-24 10.745-24 24s10.745 24 24 24h-8c-26.509.175-47.857 21.807-47.682 48.316.153 23.197 16.873 42.965 39.722 46.964 0 .24-.04.48-.04.72-.049 35.346 28.566 64.039 63.912 64.088s64.039-28.566 64.088-63.912a64.003 64.003 0 0 0-21.768-48.176h5.768v-57.688a88.248 88.248 0 0 1-44-52.128c-.072-.216-.152-.424-.224-.64v-.12a87.464 87.464 0 0 1-3.776-25.424v-48h64.8c18.355.001 34.355-12.49 38.808-30.296l16.392-57.704 17.944 63.76c3.56 14.244 16.358 24.238 31.04 24.24h7.016v48c0 2.704-.16 5.368-.408 8-.072.8-.176 1.656-.272 2.48a86.004 86.004 0 0 1-.848 5.528c-.16.864-.296 1.72-.48 2.576a87.818 87.818 0 0 1-1.792 6.96c-.304 1.024-.688 2.008-1.032 3.016-.456 1.312-.92 2.624-1.432 3.912s-1.024 2.464-1.6 3.68c-.44.96-.904 1.904-1.376 2.848a87.733 87.733 0 0 1-5.056 9h14.296l.368-.664 21.96-39.528c1.424-2.56 2.757-5.163 4-7.808s2.387-5.256 3.432-7.832a140.417 140.417 0 0 0 10.24-52.552c0-65.848-48.224-123.736-113.696-130.816z" style="" fill="#bb9bff" data-original="#1e1c19" class=""></path><path d="m279.848 56.013-16.424 57.704c-4.45 17.795-20.433 30.283-38.776 30.296h8c18.355.001 34.355-12.49 38.808-30.296l12.4-43.568-4.008-14.136z" style="" fill="#dbc6ae" data-original="#dbc6ae" class=""></path><path d="M202.08 328.013c26.53 23.255 29.186 63.615 5.93 90.145a63.882 63.882 0 0 1-44.162 21.655c1.328.08 2.648.2 4 .2 35.311.038 63.967-28.555 64.006-63.866a63.935 63.935 0 0 0-21.774-48.134" style="opacity:0.25;enable-background:new ;" fill="#000000" data-original="#000000" class=""></path></g></svg>